<svg width="98" height="274" viewBox="0 0 98 274" fill="none" xmlns="http://www.w3.org/2000/svg">
<g opacity="0.5">
<path d="M273.638 136.819C273.638 212.262 212.262 273.638 136.819 273.638C61.376 273.638 0 212.262 0 136.819C0 61.376 61.376 0 136.819 0C212.262 0 273.638 61.376 273.638 136.819ZM43.0336 136.819C43.0336 188.531 85.1072 230.618 136.819 230.618C188.544 230.618 230.618 188.531 230.618 136.819C230.618 85.1072 188.544 43.0208 136.819 43.0208C85.1072 43.0208 43.0336 85.0944 43.0336 136.819Z" fill="url(#paint0_linear_6363_333)"/>
<path d="M211.251 136.819C211.251 177.856 177.856 211.251 136.819 211.251C95.7819 211.251 62.3867 177.856 62.3867 136.819H113.164C113.164 149.875 123.776 160.486 136.819 160.486C149.875 160.486 160.486 149.875 160.486 136.819C160.486 123.776 149.875 113.152 136.819 113.152V62.3867C177.868 62.3867 211.251 95.7691 211.251 136.819Z" fill="url(#paint1_linear_6363_333)"/>
</g>
<defs>
<linearGradient id="paint0_linear_6363_333" x1="136.821" y1="273.637" x2="136.821" y2="0.00039144" gradientUnits="userSpaceOnUse">
<stop offset="0.00093994" stop-color="white"/>
<stop offset="1" stop-color="white" stop-opacity="0"/>
</linearGradient>
<linearGradient id="paint1_linear_6363_333" x1="136.82" y1="211.247" x2="136.82" y2="62.3875" gradientUnits="userSpaceOnUse">
<stop stop-color="#0380B6"/>
<stop offset="1" stop-color="#02C7AB"/>
</linearGradient>
</defs>
</svg>
