<svg width="95" height="130" viewBox="0 0 95 130" fill="none" xmlns="http://www.w3.org/2000/svg">
<path d="M28.2503 48.2242V1.59884C28.2503 0.725401 28.9683 0 29.8491 0C30.7299 0 31.4479 0.717999 31.4479 1.59884V48.2242C30.3746 48.1205 29.3013 48.1205 28.2503 48.2242ZM37.6138 50.0673L48.1617 24.212C48.4948 23.3978 48.1099 22.4577 47.2882 22.132C46.474 21.7915 45.534 22.1913 45.2009 23.0055L34.6604 48.8607C35.6893 49.1716 36.6738 49.5787 37.6138 50.0673ZM-10.788 46.5513C-11.5948 46.2182 -12.5349 46.6031 -12.868 47.4247C-13.2011 48.2464 -12.8087 49.179 -11.9945 49.5047L13.8607 60.0526C14.1716 59.0089 14.5787 58.0244 15.0673 57.0918L-10.788 46.5513ZM-12.6829 82.7398C-12.4238 83.3541 -11.8391 83.7168 -11.2099 83.7168C-11.0027 83.7168 -10.7954 83.6798 -10.5955 83.591L15.1413 72.7767C14.6305 71.8366 14.216 70.8521 13.8977 69.8307L-11.8317 80.6524C-12.6459 80.9855 -13.0234 81.9256 -12.6829 82.7398ZM72.3885 46.9658C72.048 46.1516 71.1079 45.7741 70.2937 46.1146L44.5643 56.9289C45.0751 57.869 45.4822 58.8535 45.8078 59.8749L71.5447 49.0532C72.3515 48.7201 72.729 47.78 72.3885 46.9658ZM42.736 54.2272L75.7046 21.2586C76.3264 20.6294 76.3264 19.6228 75.7046 18.9936C75.0828 18.3718 74.0688 18.3718 73.4396 18.9936L40.471 51.9622C41.3074 52.6506 42.0624 53.4056 42.736 54.2272ZM21.9289 50.1487C22.869 49.6379 23.8535 49.2308 24.8749 48.9051L14.0532 23.1757C13.7127 22.3615 12.7726 21.9766 11.9584 22.3171C11.1442 22.6576 10.7593 23.5976 11.1072 24.4119L21.9289 50.1487ZM70.4936 83.1617C70.686 83.2431 70.8933 83.2801 71.0931 83.2801C71.7223 83.2801 72.3219 82.9026 72.5662 82.2882C72.8992 81.474 72.5143 80.5414 71.6927 80.2083L45.8523 69.653C45.5414 70.6893 45.1343 71.6812 44.6457 72.6138L70.4936 83.1617ZM37.7692 79.5643C36.8366 80.0676 35.8521 80.4896 34.8232 80.8078L45.6376 106.53C45.8967 107.144 46.4888 107.507 47.1106 107.507C47.3253 107.507 47.5325 107.463 47.7324 107.381C48.5466 107.041 48.9241 106.101 48.591 105.286L37.7692 79.5643ZM28.2503 81.4888V128.107C28.2503 128.988 28.9683 129.706 29.8491 129.706C30.7299 129.706 31.4479 128.995 31.4479 128.107V81.4888C30.4043 81.5925 29.3309 81.5925 28.2503 81.4888ZM93.1068 63.2577H46.4888C46.5851 64.3088 46.5851 65.3746 46.4814 66.4553H93.1068C93.9876 66.4553 94.7056 65.7447 94.7056 64.8565C94.7056 63.9757 93.9876 63.2577 93.1068 63.2577ZM42.7434 75.4858C42.0624 76.3148 41.3074 77.0698 40.4784 77.7434L73.447 110.712C73.7653 111.023 74.165 111.178 74.5721 111.178C74.9866 111.178 75.3937 111.023 75.712 110.712C76.3338 110.09 76.3338 109.076 75.712 108.454L42.7434 75.4858ZM13.2242 63.2577H-33.4012C-34.282 63.2577 -35 63.9757 -35 64.8565C-35 65.7373 -34.282 66.4553 -33.4012 66.4553H13.2242C13.1205 65.4042 13.1205 64.331 13.2242 63.2577ZM16.9696 54.2272C17.6506 53.3982 18.4056 52.6432 19.2272 51.9622L-13.7414 18.9936C-14.3706 18.3718 -15.3772 18.3718 -15.999 18.9936C-16.6208 19.6228 -16.6208 20.6294 -15.999 21.2586L16.9696 54.2272ZM16.9696 75.4784L-15.999 108.447C-16.6208 109.076 -16.6208 110.083 -15.999 110.705C-15.6881 111.015 -15.281 111.171 -14.8665 111.171C-14.452 111.171 -14.0449 111.015 -13.734 110.705L19.2272 77.736C18.3908 77.0624 17.6432 76.3 16.9696 75.4784ZM22.0992 79.6457L11.5513 105.494C11.2182 106.308 11.6105 107.24 12.4321 107.574C12.632 107.655 12.8318 107.692 13.0317 107.692C13.6609 107.692 14.2678 107.314 14.5121 106.7L25.0526 80.8523C24.0163 80.5414 23.0244 80.1343 22.0992 79.6457Z" fill="white"/>
<path opacity="0.1" d="M82.6541 75.7061C76.6659 104.87 48.1533 123.649 18.9968 117.653C-10.1598 111.658 -28.9461 83.16 -22.9579 53.996C-16.9548 24.8321 11.5429 6.05314 40.7069 12.0488C69.8634 18.0518 88.6498 46.5496 82.6541 75.7061Z" fill="white"/>
<path opacity="0.3" d="M56.3703 70.3006C53.3576 84.9492 39.0495 94.3794 24.3935 91.3741C9.75975 88.3615 0.32217 74.046 3.32739 59.4048C6.34741 44.7636 20.6481 35.3261 35.2967 38.3313C49.9453 41.3439 59.3755 55.652 56.3703 70.3006Z" fill="white"/>
<path d="M38.5308 66.6403C37.5463 71.4294 32.8608 74.516 28.0717 73.5389C23.2752 72.5545 20.1959 67.869 21.173 63.0725C22.1575 58.2834 26.843 55.1893 31.6395 56.1812C36.4286 57.1657 39.5152 61.8437 38.5308 66.6403Z" fill="white"/>
</svg>
