<svg width="191" height="179" viewBox="0 0 191 179" fill="none" xmlns="http://www.w3.org/2000/svg">
<path opacity="0.5" d="M335.117 153.075C337.114 153.075 338.726 154.688 338.726 156.698C338.726 158.707 337.101 160.307 335.117 160.307C333.12 160.307 331.494 158.694 331.494 156.698C331.482 154.701 333.107 153.075 335.117 153.075ZM309.389 156.698C309.389 158.707 311.014 160.307 313.011 160.307C315.008 160.307 316.621 158.694 316.621 156.698C316.621 154.701 315.008 153.075 313.011 153.075C311.014 153.075 309.389 154.701 309.389 156.698ZM287.296 156.698C287.296 158.707 288.922 160.307 290.918 160.307C292.915 160.307 294.541 158.694 294.541 156.698C294.541 154.701 292.915 153.075 290.918 153.075C288.909 153.075 287.296 154.701 287.296 156.698ZM7.24484 134.835C7.24484 133.773 6.77116 132.813 6.04156 132.16C5.50396 134.208 4.97924 136.256 4.51844 138.33C6.08004 137.92 7.24484 136.512 7.24484 134.835ZM265.19 156.698C265.19 158.707 266.803 160.307 268.813 160.307C270.81 160.307 272.435 158.694 272.435 156.698C272.435 154.701 270.81 153.075 268.813 153.075C266.803 153.075 265.19 154.701 265.19 156.698ZM3.62234 160.307C5.61914 160.307 7.24484 158.694 7.24484 156.698C7.24484 154.701 5.61914 153.075 3.62234 153.075C2.93114 153.075 2.27837 153.28 1.72797 153.613C1.47197 155.482 1.22887 157.338 1.03688 159.219C1.68967 159.898 2.59834 160.307 3.62234 160.307ZM110.49 156.698C110.49 158.707 112.115 160.307 114.112 160.307C116.109 160.307 117.734 158.694 117.734 156.698C117.734 154.701 116.122 153.075 114.112 153.075C112.115 153.075 110.49 154.701 110.49 156.698ZM176.794 156.698C176.794 158.707 178.406 160.307 180.416 160.307C182.426 160.307 184.038 158.694 184.038 156.698C184.038 154.701 182.413 153.075 180.416 153.075C178.419 153.075 176.794 154.701 176.794 156.698ZM154.688 156.698C154.688 158.707 156.314 160.307 158.31 160.307C160.307 160.307 161.933 158.694 161.933 156.698C161.933 154.701 160.307 153.075 158.31 153.075C156.314 153.075 154.688 154.701 154.688 156.698ZM132.595 156.698C132.595 158.707 134.221 160.307 136.218 160.307C138.214 160.307 139.827 158.694 139.827 156.698C139.827 154.701 138.214 153.075 136.218 153.075C134.221 153.075 132.595 154.701 132.595 156.698ZM198.899 156.698C198.899 158.707 200.512 160.307 202.509 160.307C204.506 160.307 206.131 158.694 206.131 156.698C206.131 154.701 204.518 153.075 202.509 153.075C200.512 153.075 198.899 154.701 198.899 156.698ZM309.389 134.835C309.389 136.819 311.014 138.458 313.011 138.458C315.008 138.458 316.621 136.832 316.621 134.835C316.621 132.826 315.008 131.2 313.011 131.2C311.014 131.2 309.389 132.826 309.389 134.835ZM220.992 156.698C220.992 158.707 222.605 160.307 224.614 160.307C226.611 160.307 228.237 158.694 228.237 156.698C228.237 154.701 226.611 153.075 224.614 153.075C222.618 153.075 220.992 154.701 220.992 156.698ZM243.085 156.698C243.085 158.707 244.698 160.307 246.72 160.307C248.704 160.307 250.33 158.694 250.33 156.698C250.33 154.701 248.704 153.075 246.72 153.075C244.698 153.075 243.085 154.701 243.085 156.698ZM265.19 134.835C265.19 136.819 266.803 138.458 268.813 138.458C270.81 138.458 272.435 136.832 272.435 134.835C272.435 132.826 270.81 131.2 268.813 131.2C266.803 131.2 265.19 132.826 265.19 134.835ZM198.899 134.835C198.899 136.819 200.512 138.458 202.509 138.458C204.506 138.458 206.131 136.832 206.131 134.835C206.131 132.826 204.518 131.2 202.509 131.2C200.512 131.2 198.899 132.826 198.899 134.835ZM220.992 134.835C220.992 136.819 222.605 138.458 224.614 138.458C226.611 138.458 228.237 136.832 228.237 134.835C228.237 132.826 226.611 131.2 224.614 131.2C222.618 131.2 220.992 132.826 220.992 134.835ZM44.1984 134.835C44.1984 136.819 45.8112 138.458 47.808 138.458C49.8048 138.458 51.4305 136.832 51.4305 134.835C51.4305 132.826 49.8048 131.2 47.808 131.2C45.8112 131.2 44.1984 132.826 44.1984 134.835ZM287.296 134.835C287.296 136.819 288.922 138.458 290.918 138.458C292.915 138.458 294.541 136.832 294.541 134.835C294.541 132.826 292.915 131.2 290.918 131.2C288.909 131.2 287.296 132.826 287.296 134.835ZM331.482 134.835C331.482 136.819 333.107 138.458 335.104 138.458C337.101 138.458 338.714 136.832 338.714 134.835C338.714 132.826 337.088 131.2 335.104 131.2C333.107 131.2 331.482 132.826 331.482 134.835ZM243.085 134.835C243.085 136.819 244.698 138.458 246.72 138.458C248.704 138.458 250.33 136.832 250.33 134.835C250.33 132.826 248.704 131.2 246.72 131.2C244.698 131.2 243.085 132.826 243.085 134.835ZM88.3969 134.835C88.3969 136.819 90.0224 138.458 92.0192 138.458C94.016 138.458 95.6416 136.832 95.6416 134.835C95.6416 132.826 94.016 131.2 92.0192 131.2C90.0224 131.2 88.3969 132.826 88.3969 134.835ZM66.3041 134.835C66.3041 136.819 67.9168 138.458 69.9264 138.458C71.936 138.458 73.5488 136.832 73.5488 134.835C73.5488 132.826 71.9232 131.2 69.9264 131.2C67.9296 131.2 66.3041 132.826 66.3041 134.835ZM110.49 134.835C110.49 136.819 112.115 138.458 114.112 138.458C116.109 138.458 117.734 136.832 117.734 134.835C117.734 132.826 116.122 131.2 114.112 131.2C112.115 131.2 110.49 132.826 110.49 134.835ZM176.794 134.835C176.794 136.819 178.406 138.458 180.416 138.458C182.426 138.458 184.038 136.832 184.038 134.835C184.038 132.826 182.413 131.2 180.416 131.2C178.419 131.2 176.794 132.826 176.794 134.835ZM132.595 134.835C132.595 136.819 134.221 138.458 136.218 138.458C138.214 138.458 139.827 136.832 139.827 134.835C139.827 132.826 138.214 131.2 136.218 131.2C134.221 131.2 132.595 132.826 132.595 134.835ZM154.688 134.835C154.688 136.819 156.314 138.458 158.31 138.458C160.307 138.458 161.933 136.832 161.933 134.835C161.933 132.826 160.307 131.2 158.31 131.2C156.314 131.2 154.688 132.826 154.688 134.835ZM22.0928 134.835C22.0928 136.819 23.7184 138.458 25.7152 138.458C27.712 138.458 29.3377 136.832 29.3377 134.835C29.3377 132.826 27.712 131.2 25.7152 131.2C23.7184 131.2 22.0928 132.826 22.0928 134.835ZM88.3969 156.698C88.3969 158.707 90.0224 160.307 92.0192 160.307C94.016 160.307 95.6416 158.694 95.6416 156.698C95.6416 154.701 94.016 153.075 92.0192 153.075C90.0224 153.075 88.3969 154.701 88.3969 156.698ZM66.3041 178.573C66.3041 180.57 67.9168 182.195 69.9264 182.195C71.936 182.195 73.5488 180.582 73.5488 178.573C73.5488 176.576 71.9232 174.95 69.9264 174.95C67.9296 174.95 66.3041 176.576 66.3041 178.573ZM22.0928 178.573C22.0928 180.57 23.7184 182.195 25.7152 182.195C27.712 182.195 29.3377 180.582 29.3377 178.573C29.3377 176.576 27.712 174.95 25.7152 174.95C23.7184 174.95 22.0928 176.576 22.0928 178.573ZM88.3969 178.573C88.3969 180.57 90.0224 182.195 92.0192 182.195C94.016 182.195 95.6416 180.582 95.6416 178.573C95.6416 176.576 94.016 174.95 92.0192 174.95C90.0224 174.95 88.3969 176.576 88.3969 178.573ZM3.62234 204.058C5.61914 204.058 7.24484 202.432 7.24484 200.435C7.24484 198.438 5.61914 196.826 3.62234 196.826C2.61114 196.826 1.68967 197.248 1.03688 197.914C1.24168 199.795 1.47197 201.651 1.72797 203.507C2.27837 203.853 2.91834 204.058 3.62234 204.058ZM110.49 178.573C110.49 180.57 112.115 182.195 114.112 182.195C116.109 182.195 117.734 180.582 117.734 178.573C117.734 176.576 116.122 174.95 114.112 174.95C112.115 174.95 110.49 176.576 110.49 178.573ZM243.085 200.435C243.085 202.432 244.698 204.058 246.72 204.058C248.704 204.058 250.33 202.432 250.33 200.435C250.33 198.438 248.704 196.826 246.72 196.826C244.698 196.813 243.085 198.438 243.085 200.435ZM132.595 178.573C132.595 180.57 134.221 182.195 136.218 182.195C138.214 182.195 139.827 180.582 139.827 178.573C139.827 176.576 138.214 174.95 136.218 174.95C134.221 174.95 132.595 176.576 132.595 178.573ZM220.992 200.435C220.992 202.432 222.605 204.058 224.614 204.058C226.611 204.058 228.237 202.432 228.237 200.435C228.237 198.438 226.611 196.826 224.614 196.826C222.618 196.813 220.992 198.438 220.992 200.435ZM309.389 200.435C309.389 202.432 311.014 204.058 313.011 204.058C315.008 204.058 316.621 202.432 316.621 200.435C316.621 198.438 315.008 196.826 313.011 196.826C311.014 196.813 309.389 198.438 309.389 200.435ZM265.19 200.435C265.19 202.432 266.803 204.058 268.813 204.058C270.81 204.058 272.435 202.432 272.435 200.435C272.435 198.438 270.81 196.826 268.813 196.826C266.803 196.813 265.19 198.438 265.19 200.435ZM331.482 200.435C331.482 202.432 333.107 204.058 335.104 204.058C337.101 204.058 338.714 202.432 338.714 200.435C338.714 198.438 337.088 196.826 335.104 196.826C333.107 196.813 331.482 198.438 331.482 200.435ZM287.296 200.435C287.296 202.432 288.922 204.058 290.918 204.058C292.915 204.058 294.541 202.432 294.541 200.435C294.541 198.438 292.915 196.826 290.918 196.826C288.909 196.813 287.296 198.438 287.296 200.435ZM44.1984 178.573C44.1984 180.57 45.8112 182.195 47.808 182.195C49.8048 182.195 51.4305 180.582 51.4305 178.573C51.4305 176.576 49.8048 174.95 47.808 174.95C45.8112 174.95 44.1984 176.576 44.1984 178.573ZM0 178.573C0 180.57 1.61274 182.195 3.62234 182.195C5.63194 182.195 7.24484 180.582 7.24484 178.573C7.24484 176.576 5.61914 174.95 3.62234 174.95C1.62554 174.95 0 176.576 0 178.573ZM22.0928 156.698C22.0928 158.707 23.7184 160.307 25.7152 160.307C27.712 160.307 29.3377 158.694 29.3377 156.698C29.3377 154.701 27.712 153.075 25.7152 153.075C23.7184 153.075 22.0928 154.701 22.0928 156.698ZM331.482 178.573C331.482 180.57 333.107 182.195 335.104 182.195C337.101 182.195 338.714 180.582 338.714 178.573C338.714 176.576 337.088 174.95 335.104 174.95C333.107 174.95 331.482 176.576 331.482 178.573ZM309.389 178.573C309.389 180.57 311.014 182.195 313.011 182.195C315.008 182.195 316.621 180.582 316.621 178.573C316.621 176.576 315.008 174.95 313.011 174.95C311.014 174.95 309.389 176.576 309.389 178.573ZM44.1984 156.698C44.1984 158.707 45.8112 160.307 47.808 160.307C49.8048 160.307 51.4305 158.694 51.4305 156.698C51.4305 154.701 49.8048 153.075 47.808 153.075C45.8112 153.075 44.1984 154.701 44.1984 156.698ZM66.3041 156.698C66.3041 158.707 67.9168 160.307 69.9264 160.307C71.936 160.307 73.5488 158.694 73.5488 156.698C73.5488 154.701 71.9232 153.075 69.9264 153.075C67.9296 153.075 66.3041 154.701 66.3041 156.698ZM198.899 178.573C198.899 180.57 200.512 182.195 202.509 182.195C204.506 182.195 206.131 180.582 206.131 178.573C206.131 176.576 204.518 174.95 202.509 174.95C200.512 174.95 198.899 176.576 198.899 178.573ZM220.992 178.573C220.992 180.57 222.605 182.195 224.614 182.195C226.611 182.195 228.237 180.582 228.237 178.573C228.237 176.576 226.611 174.95 224.614 174.95C222.618 174.95 220.992 176.576 220.992 178.573ZM154.688 178.573C154.688 180.57 156.314 182.195 158.31 182.195C160.307 182.195 161.933 180.582 161.933 178.573C161.933 176.576 160.307 174.95 158.31 174.95C156.314 174.95 154.688 176.576 154.688 178.573ZM287.296 178.573C287.296 180.57 288.922 182.195 290.918 182.195C292.915 182.195 294.541 180.582 294.541 178.573C294.541 176.576 292.915 174.95 290.918 174.95C288.909 174.95 287.296 176.576 287.296 178.573ZM176.794 178.573C176.794 180.57 178.406 182.195 180.416 182.195C182.426 182.195 184.038 180.582 184.038 178.573C184.038 176.576 182.413 174.95 180.416 174.95C178.419 174.95 176.794 176.576 176.794 178.573ZM265.19 178.573C265.19 180.57 266.803 182.195 268.813 182.195C270.81 182.195 272.435 180.582 272.435 178.573C272.435 176.576 270.81 174.95 268.813 174.95C266.803 174.95 265.19 176.576 265.19 178.573ZM243.085 178.573C243.085 180.57 244.698 182.195 246.72 182.195C248.704 182.195 250.33 180.582 250.33 178.573C250.33 176.576 248.704 174.95 246.72 174.95C244.698 174.95 243.085 176.576 243.085 178.573ZM110.49 25.4976C110.49 27.4944 112.115 29.1072 114.112 29.1072C116.109 29.1072 117.734 27.4944 117.734 25.4976C117.734 23.488 116.122 21.8752 114.112 21.8752C112.115 21.8624 110.49 23.488 110.49 25.4976ZM287.296 91.0976C287.296 93.1072 288.922 94.7072 290.918 94.7072C292.915 94.7072 294.541 93.1072 294.541 91.0976C294.541 89.1008 292.915 87.4752 290.918 87.4752C288.909 87.4752 287.296 89.088 287.296 91.0976ZM176.794 47.36C176.794 49.3568 178.406 50.9824 180.416 50.9824C182.426 50.9824 184.038 49.3568 184.038 47.36C184.038 45.3504 182.413 43.7376 180.416 43.7376C178.419 43.7376 176.794 45.3504 176.794 47.36ZM132.595 47.36C132.595 49.3568 134.221 50.9824 136.218 50.9824C138.214 50.9824 139.827 49.3568 139.827 47.36C139.827 45.3504 138.214 43.7376 136.218 43.7376C134.221 43.7376 132.595 45.3504 132.595 47.36ZM154.688 47.36C154.688 49.3568 156.314 50.9824 158.31 50.9824C160.307 50.9824 161.933 49.3568 161.933 47.36C161.933 45.3504 160.307 43.7376 158.31 43.7376C156.314 43.7376 154.688 45.3504 154.688 47.36ZM220.992 47.36C220.992 49.3568 222.605 50.9824 224.614 50.9824C226.611 50.9824 228.237 49.3568 228.237 47.36C228.237 45.3504 226.611 43.7376 224.614 43.7376C222.618 43.7376 220.992 45.3504 220.992 47.36ZM265.19 47.36C265.19 49.3568 266.803 50.9824 268.813 50.9824C270.81 50.9824 272.435 49.3568 272.435 47.36C272.435 45.3504 270.81 43.7376 268.813 43.7376C266.803 43.7376 265.19 45.3504 265.19 47.36ZM294.528 47.36C294.528 45.3504 292.902 43.7376 290.906 43.7376C288.909 43.7376 287.283 45.3632 287.283 47.36C287.283 49.3568 288.909 50.9824 290.906 50.9824C292.902 50.9824 294.528 49.3568 294.528 47.36ZM224.614 7.2448C226.304 7.2448 227.699 6.09281 228.109 4.53121C225.792 3.90401 223.475 3.3024 221.107 2.7648C221.043 3.0464 220.992 3.32798 220.992 3.62238C220.992 5.61918 222.618 7.2448 224.614 7.2448ZM335.117 262.413C333.12 262.413 331.494 264.026 331.494 266.035C331.494 268.032 333.12 269.658 335.117 269.658C335.526 269.658 335.923 269.581 336.282 269.44C337.088 268.07 337.882 266.675 338.637 265.28C338.291 263.642 336.845 262.413 335.117 262.413ZM110.49 47.36C110.49 49.3568 112.115 50.9824 114.112 50.9824C116.109 50.9824 117.734 49.3568 117.734 47.36C117.734 45.3504 116.122 43.7376 114.112 43.7376C112.115 43.7376 110.49 45.3504 110.49 47.36ZM243.085 47.36C243.085 49.3568 244.698 50.9824 246.72 50.9824C248.704 50.9824 250.33 49.3568 250.33 47.36C250.33 45.3504 248.704 43.7376 246.72 43.7376C244.698 43.7376 243.085 45.3504 243.085 47.36ZM66.3041 47.36C66.3041 49.3568 67.9168 50.9824 69.9264 50.9824C71.936 50.9824 73.5488 49.3568 73.5488 47.36C73.5488 45.3504 71.9232 43.7376 69.9264 43.7376C67.9296 43.7376 66.3041 45.3504 66.3041 47.36ZM88.3969 47.36C88.3969 49.3568 90.0224 50.9824 92.0192 50.9824C94.016 50.9824 95.6416 49.3568 95.6416 47.36C95.6416 45.3504 94.016 43.7376 92.0192 43.7376C90.0224 43.7376 88.3969 45.3504 88.3969 47.36ZM198.899 47.36C198.899 49.3568 200.512 50.9824 202.509 50.9824C204.506 50.9824 206.131 49.3568 206.131 47.36C206.131 45.3504 204.518 43.7376 202.509 43.7376C200.512 43.7376 198.899 45.3504 198.899 47.36ZM265.19 25.4976C265.19 27.4944 266.803 29.1072 268.813 29.1072C270.81 29.1072 272.435 27.4944 272.435 25.4976C272.435 23.488 270.81 21.8752 268.813 21.8752C266.803 21.8624 265.19 23.488 265.19 25.4976ZM154.688 3.62238C154.688 5.61918 156.314 7.2448 158.31 7.2448C160.307 7.2448 161.933 5.61918 161.933 3.62238C161.933 1.62558 160.307 0 158.31 0C156.314 0 154.688 1.62558 154.688 3.62238ZM243.085 25.4976C243.085 27.4944 244.698 29.1072 246.72 29.1072C248.704 29.1072 250.33 27.4944 250.33 25.4976C250.33 23.488 248.704 21.8752 246.72 21.8752C244.698 21.8624 243.085 23.488 243.085 25.4976ZM88.3969 25.4976C88.3969 27.4944 90.0224 29.1072 92.0192 29.1072C94.016 29.1072 95.6416 27.4944 95.6416 25.4976C95.6416 23.488 94.016 21.8752 92.0192 21.8752C90.0224 21.8624 88.3969 23.488 88.3969 25.4976ZM176.794 3.62238C176.794 5.61918 178.406 7.2448 180.416 7.2448C182.426 7.2448 184.038 5.61918 184.038 3.62238C184.038 1.62558 182.413 0 180.416 0C178.419 0 176.794 1.62558 176.794 3.62238ZM198.899 3.62238C198.899 5.61918 200.512 7.2448 202.509 7.2448C204.506 7.2448 206.131 5.61918 206.131 3.62238C206.131 1.62558 204.518 0 202.509 0C200.512 0 198.899 1.62558 198.899 3.62238ZM136.218 7.2448C138.214 7.2448 139.827 5.61918 139.827 3.62238C139.827 3.32798 139.789 3.0336 139.712 2.7648C137.357 3.3024 135.04 3.90401 132.723 4.53121C133.133 6.09281 134.541 7.2448 136.218 7.2448ZM154.688 25.4976C154.688 27.4944 156.314 29.1072 158.31 29.1072C160.307 29.1072 161.933 27.4944 161.933 25.4976C161.933 23.488 160.307 21.8752 158.31 21.8752C156.314 21.8624 154.688 23.488 154.688 25.4976ZM132.595 25.4976C132.595 27.4944 134.221 29.1072 136.218 29.1072C138.214 29.1072 139.827 27.4944 139.827 25.4976C139.827 23.488 138.214 21.8752 136.218 21.8752C134.221 21.8624 132.595 23.488 132.595 25.4976ZM198.899 200.435C198.899 202.432 200.512 204.058 202.509 204.058C204.506 204.058 206.131 202.432 206.131 200.435C206.131 198.438 204.518 196.826 202.509 196.826C200.512 196.813 198.899 198.438 198.899 200.435ZM198.899 25.4976C198.899 27.4944 200.512 29.1072 202.509 29.1072C204.506 29.1072 206.131 27.4944 206.131 25.4976C206.131 23.488 204.518 21.8752 202.509 21.8752C200.512 21.8624 198.899 23.488 198.899 25.4976ZM220.992 25.4976C220.992 27.4944 222.605 29.1072 224.614 29.1072C226.611 29.1072 228.237 27.4944 228.237 25.4976C228.237 23.488 226.611 21.8752 224.614 21.8752C222.618 21.8624 220.992 23.488 220.992 25.4976ZM176.794 25.4976C176.794 27.4944 178.406 29.1072 180.416 29.1072C182.426 29.1072 184.038 27.4944 184.038 25.4976C184.038 23.488 182.413 21.8752 180.416 21.8752C178.419 21.8752 176.794 23.488 176.794 25.4976ZM331.482 112.96C331.482 114.957 333.107 116.57 335.104 116.57C337.101 116.57 338.714 114.957 338.714 112.96C338.714 110.95 337.088 109.338 335.104 109.338C333.107 109.35 331.482 110.963 331.482 112.96ZM220.992 112.96C220.992 114.957 222.605 116.57 224.614 116.57C226.611 116.57 228.237 114.957 228.237 112.96C228.237 110.95 226.611 109.338 224.614 109.338C222.618 109.35 220.992 110.963 220.992 112.96ZM198.899 112.96C198.899 114.957 200.512 116.57 202.509 116.57C204.506 116.57 206.131 114.957 206.131 112.96C206.131 110.95 204.518 109.338 202.509 109.338C200.512 109.35 198.899 110.963 198.899 112.96ZM243.085 112.96C243.085 114.957 244.698 116.57 246.72 116.57C248.704 116.57 250.33 114.957 250.33 112.96C250.33 110.95 248.704 109.338 246.72 109.338C244.698 109.35 243.085 110.963 243.085 112.96ZM265.19 112.96C265.19 114.957 266.803 116.57 268.813 116.57C270.81 116.57 272.435 114.957 272.435 112.96C272.435 110.95 270.81 109.338 268.813 109.338C266.803 109.35 265.19 110.963 265.19 112.96ZM287.296 112.96C287.296 114.957 288.922 116.57 290.918 116.57C292.915 116.57 294.541 114.957 294.541 112.96C294.541 110.95 292.915 109.338 290.918 109.338C288.909 109.35 287.296 110.963 287.296 112.96ZM176.794 112.96C176.794 114.957 178.406 116.57 180.416 116.57C182.426 116.57 184.038 114.957 184.038 112.96C184.038 110.95 182.413 109.338 180.416 109.338C178.419 109.338 176.794 110.963 176.794 112.96ZM44.1984 112.96C44.1984 114.957 45.8112 116.57 47.808 116.57C49.8048 116.57 51.4305 114.957 51.4305 112.96C51.4305 110.95 49.8048 109.338 47.808 109.338C45.8112 109.35 44.1984 110.963 44.1984 112.96ZM66.3041 112.96C66.3041 114.957 67.9168 116.57 69.9264 116.57C71.936 116.57 73.5488 114.957 73.5488 112.96C73.5488 110.95 71.9232 109.338 69.9264 109.338C67.9296 109.338 66.3041 110.963 66.3041 112.96ZM88.3969 112.96C88.3969 114.957 90.0224 116.57 92.0192 116.57C94.016 116.57 95.6416 114.957 95.6416 112.96C95.6416 110.95 94.016 109.338 92.0192 109.338C90.0224 109.35 88.3969 110.963 88.3969 112.96ZM22.0928 112.96C22.0928 114.957 23.7184 116.57 25.7152 116.57C27.712 116.57 29.3377 114.957 29.3377 112.96C29.3377 110.95 27.712 109.338 25.7152 109.338C23.7184 109.35 22.0928 110.963 22.0928 112.96ZM154.688 112.96C154.688 114.957 156.314 116.57 158.31 116.57C160.307 116.57 161.933 114.957 161.933 112.96C161.933 110.95 160.307 109.338 158.31 109.338C156.314 109.35 154.688 110.963 154.688 112.96ZM110.49 112.96C110.49 114.957 112.115 116.57 114.112 116.57C116.109 116.57 117.734 114.957 117.734 112.96C117.734 110.95 116.122 109.338 114.112 109.338C112.115 109.35 110.49 110.963 110.49 112.96ZM132.595 112.96C132.595 114.957 134.221 116.57 136.218 116.57C138.214 116.57 139.827 114.957 139.827 112.96C139.827 110.95 138.214 109.338 136.218 109.338C134.221 109.35 132.595 110.963 132.595 112.96ZM309.389 91.0976C309.389 93.1072 311.014 94.7072 313.011 94.7072C315.008 94.7072 316.621 93.1072 316.621 91.0976C316.621 89.1008 315.008 87.4752 313.011 87.4752C311.014 87.4752 309.389 89.088 309.389 91.0976ZM220.992 91.0976C220.992 93.1072 222.605 94.7072 224.614 94.7072C226.611 94.7072 228.237 93.1072 228.237 91.0976C228.237 89.1008 226.611 87.4752 224.614 87.4752C222.618 87.4752 220.992 89.088 220.992 91.0976ZM198.899 91.0976C198.899 93.1072 200.512 94.7072 202.509 94.7072C204.506 94.7072 206.131 93.1072 206.131 91.0976C206.131 89.1008 204.518 87.4752 202.509 87.4752C200.512 87.4752 198.899 89.088 198.899 91.0976ZM309.389 112.96C309.389 114.957 311.014 116.57 313.011 116.57C315.008 116.57 316.621 114.957 316.621 112.96C316.621 110.95 315.008 109.338 313.011 109.338C311.014 109.35 309.389 110.963 309.389 112.96ZM154.688 91.0976C154.688 93.1072 156.314 94.7072 158.31 94.7072C160.307 94.7072 161.933 93.1072 161.933 91.0976C161.933 89.1008 160.307 87.4752 158.31 87.4752C156.314 87.4752 154.688 89.088 154.688 91.0976ZM265.19 91.0976C265.19 93.1072 266.803 94.7072 268.813 94.7072C270.81 94.7072 272.435 93.1072 272.435 91.0976C272.435 89.1008 270.81 87.4752 268.813 87.4752C266.803 87.4752 265.19 89.088 265.19 91.0976ZM243.085 91.0976C243.085 93.1072 244.698 94.7072 246.72 94.7072C248.704 94.7072 250.33 93.1072 250.33 91.0976C250.33 89.1008 248.704 87.4752 246.72 87.4752C244.698 87.4752 243.085 89.088 243.085 91.0976ZM176.794 91.0976C176.794 93.1072 178.406 94.7072 180.416 94.7072C182.426 94.7072 184.038 93.1072 184.038 91.0976C184.038 89.1008 182.413 87.4752 180.416 87.4752C178.419 87.4752 176.794 89.088 176.794 91.0976ZM66.3041 91.0976C66.3041 93.1072 67.9168 94.7072 69.9264 94.7072C71.936 94.7072 73.5488 93.1072 73.5488 91.0976C73.5488 89.1008 71.9232 87.4752 69.9264 87.4752C67.9296 87.4752 66.3041 89.088 66.3041 91.0976ZM44.1984 91.0976C44.1984 93.1072 45.8112 94.7072 47.808 94.7072C49.8048 94.7072 51.4305 93.1072 51.4305 91.0976C51.4305 89.1008 49.8048 87.4752 47.808 87.4752C45.8112 87.4752 44.1984 89.088 44.1984 91.0976ZM110.49 91.0976C110.49 93.1072 112.115 94.7072 114.112 94.7072C116.109 94.7072 117.734 93.1072 117.734 91.0976C117.734 89.1008 116.122 87.4752 114.112 87.4752C112.115 87.4752 110.49 89.088 110.49 91.0976ZM88.3969 91.0976C88.3969 93.1072 90.0224 94.7072 92.0192 94.7072C94.016 94.7072 95.6416 93.1072 95.6416 91.0976C95.6416 89.1008 94.016 87.4752 92.0192 87.4752C90.0224 87.4752 88.3969 89.088 88.3969 91.0976ZM132.595 91.0976C132.595 93.1072 134.221 94.7072 136.218 94.7072C138.214 94.7072 139.827 93.1072 139.827 91.0976C139.827 89.1008 138.214 87.4752 136.218 87.4752C134.221 87.4752 132.595 89.088 132.595 91.0976ZM206.131 331.635C206.131 329.638 204.518 328.013 202.509 328.013C200.512 328.013 198.899 329.626 198.899 331.635C198.899 333.632 200.512 335.258 202.509 335.258C204.518 335.258 206.131 333.645 206.131 331.635ZM95.6416 69.2224C95.6416 67.2256 94.016 65.6 92.0192 65.6C90.0224 65.6 88.3969 67.2256 88.3969 69.2224C88.3969 71.2192 90.0224 72.8448 92.0192 72.8448C94.016 72.8448 95.6416 71.2192 95.6416 69.2224ZM357.21 153.075C355.213 153.075 353.587 154.688 353.587 156.698C353.587 158.707 355.2 160.307 357.21 160.307C358.221 160.307 359.13 159.898 359.795 159.232C359.59 157.338 359.36 155.494 359.104 153.626C358.554 153.28 357.901 153.075 357.21 153.075ZM117.734 69.2224C117.734 67.2256 116.122 65.6 114.112 65.6C112.115 65.6 110.49 67.2256 110.49 69.2224C110.49 71.2192 112.115 72.8448 114.112 72.8448C116.122 72.8448 117.734 71.2192 117.734 69.2224ZM139.827 69.2224C139.827 67.2256 138.214 65.6 136.218 65.6C134.221 65.6 132.595 67.2256 132.595 69.2224C132.595 71.2192 134.221 72.8448 136.218 72.8448C138.214 72.8448 139.827 71.2192 139.827 69.2224ZM331.482 91.0976C331.482 93.1072 333.107 94.7072 335.104 94.7072C336.832 94.7072 338.291 93.4912 338.637 91.84C337.882 90.4448 337.088 89.0624 336.282 87.68C335.91 87.552 335.526 87.4752 335.117 87.4752C333.107 87.4752 331.482 89.088 331.482 91.0976ZM353.587 134.835C353.587 136.525 354.752 137.92 356.314 138.33C355.84 136.256 355.328 134.208 354.79 132.16C354.048 132.813 353.587 133.773 353.587 134.835ZM73.5361 69.2224C73.5361 67.2256 71.9104 65.6 69.9136 65.6C67.9168 65.6 66.2913 67.2256 66.2913 69.2224C66.2913 71.2192 67.904 72.8448 69.9136 72.8448C71.9232 72.8448 73.5361 71.2192 73.5361 69.2224ZM250.33 69.2224C250.33 67.2256 248.704 65.6 246.72 65.6C244.698 65.6 243.085 67.2256 243.085 69.2224C243.085 71.2192 244.698 72.8448 246.72 72.8448C248.704 72.8448 250.33 71.2192 250.33 69.2224ZM272.422 69.2224C272.422 67.2256 270.797 65.6 268.8 65.6C266.803 65.6 265.178 67.2256 265.178 69.2224C265.178 71.2192 266.79 72.8448 268.8 72.8448C270.81 72.8448 272.422 71.2192 272.422 69.2224ZM294.528 69.2224C294.528 67.2256 292.902 65.6 290.906 65.6C288.909 65.6 287.283 67.2256 287.283 69.2224C287.283 71.2192 288.909 72.8448 290.906 72.8448C292.902 72.8448 294.528 71.2192 294.528 69.2224ZM228.237 69.2224C228.237 67.2256 226.611 65.6 224.614 65.6C222.618 65.6 220.992 67.2256 220.992 69.2224C220.992 71.2192 222.605 72.8448 224.614 72.8448C226.611 72.8448 228.237 71.2192 228.237 69.2224ZM184.038 69.2224C184.038 67.2256 182.413 65.6 180.416 65.6C178.419 65.6 176.794 67.2256 176.794 69.2224C176.794 71.2192 178.406 72.8448 180.416 72.8448C182.426 72.8448 184.038 71.2192 184.038 69.2224ZM206.131 69.2224C206.131 67.2256 204.518 65.6 202.509 65.6C200.512 65.6 198.899 67.2256 198.899 69.2224C198.899 71.2192 200.512 72.8448 202.509 72.8448C204.518 72.8448 206.131 71.2192 206.131 69.2224ZM161.933 69.2224C161.933 67.2256 160.307 65.6 158.31 65.6C156.314 65.6 154.688 67.2256 154.688 69.2224C154.688 71.2192 156.314 72.8448 158.31 72.8448C160.307 72.8448 161.933 71.2192 161.933 69.2224ZM154.688 287.91C154.688 289.894 156.314 291.533 158.31 291.533C160.307 291.533 161.933 289.907 161.933 287.91C161.933 285.901 160.307 284.275 158.31 284.275C156.314 284.288 154.688 285.901 154.688 287.91ZM176.794 287.91C176.794 289.894 178.406 291.533 180.416 291.533C182.426 291.533 184.038 289.907 184.038 287.91C184.038 285.901 182.413 284.275 180.416 284.275C178.419 284.275 176.794 285.901 176.794 287.91ZM132.595 287.91C132.595 289.894 134.221 291.533 136.218 291.533C138.214 291.533 139.827 289.907 139.827 287.91C139.827 285.901 138.214 284.275 136.218 284.275C134.221 284.288 132.595 285.901 132.595 287.91ZM220.992 287.91C220.992 289.894 222.605 291.533 224.614 291.533C226.611 291.533 228.237 289.907 228.237 287.91C228.237 285.901 226.611 284.275 224.614 284.275C222.618 284.288 220.992 285.901 220.992 287.91ZM110.49 287.91C110.49 289.894 112.115 291.533 114.112 291.533C116.109 291.533 117.734 289.907 117.734 287.91C117.734 285.901 116.122 284.275 114.112 284.275C112.115 284.288 110.49 285.901 110.49 287.91ZM198.899 287.91C198.899 289.894 200.512 291.533 202.509 291.533C204.506 291.533 206.131 289.907 206.131 287.91C206.131 285.901 204.518 284.275 202.509 284.275C200.512 284.288 198.899 285.901 198.899 287.91ZM357.21 174.95C355.213 174.95 353.587 176.576 353.587 178.573C353.587 180.57 355.2 182.195 357.21 182.195C359.206 182.195 360.832 180.582 360.832 178.573C360.819 176.576 359.194 174.95 357.21 174.95ZM88.3969 287.91C88.3969 289.894 90.0224 291.533 92.0192 291.533C94.016 291.533 95.6416 289.907 95.6416 287.91C95.6416 285.901 94.016 284.275 92.0192 284.275C90.0224 284.288 88.3969 285.901 88.3969 287.91ZM353.587 222.298C353.587 223.36 354.048 224.32 354.79 224.973C355.328 222.938 355.853 220.877 356.314 218.803C354.752 219.2 353.587 220.608 353.587 222.298ZM357.21 196.813C355.213 196.813 353.587 198.426 353.587 200.422C353.587 202.419 355.2 204.045 357.21 204.045C357.901 204.045 358.554 203.84 359.104 203.494C359.36 201.638 359.603 199.77 359.795 197.901C359.13 197.235 358.221 196.813 357.21 196.813ZM316.621 287.91C316.621 285.901 315.008 284.275 313.011 284.275C311.014 284.275 309.389 285.888 309.389 287.91C309.389 289.894 311.014 291.533 313.011 291.533C315.008 291.533 316.621 289.907 316.621 287.91ZM44.1984 287.91C44.1984 289.894 45.8112 291.533 47.808 291.533C49.8048 291.533 51.4305 289.907 51.4305 287.91C51.4305 285.901 49.8048 284.275 47.808 284.275C45.8112 284.288 44.1984 285.901 44.1984 287.91ZM66.3041 287.91C66.3041 289.894 67.9168 291.533 69.9264 291.533C71.936 291.533 73.5488 289.907 73.5488 287.91C73.5488 285.901 71.9232 284.275 69.9264 284.275C67.9296 284.275 66.3041 285.901 66.3041 287.91ZM272.422 331.635C272.422 329.638 270.797 328.013 268.8 328.013C266.803 328.013 265.178 329.626 265.178 331.635C265.178 333.632 266.79 335.258 268.8 335.258C270.81 335.258 272.422 333.645 272.422 331.635ZM139.827 309.773C139.827 307.776 138.214 306.15 136.218 306.15C134.221 306.15 132.595 307.776 132.595 309.773C132.595 311.77 134.221 313.395 136.218 313.395C138.214 313.395 139.827 311.77 139.827 309.773ZM161.933 309.773C161.933 307.776 160.307 306.15 158.31 306.15C156.314 306.15 154.688 307.776 154.688 309.773C154.688 311.77 156.314 313.395 158.31 313.395C160.307 313.395 161.933 311.77 161.933 309.773ZM206.131 309.773C206.131 307.776 204.518 306.15 202.509 306.15C200.512 306.15 198.899 307.776 198.899 309.773C198.899 311.77 200.512 313.395 202.509 313.395C204.518 313.395 206.131 311.77 206.131 309.773ZM184.038 309.773C184.038 307.776 182.413 306.15 180.416 306.15C178.419 306.15 176.794 307.776 176.794 309.773C176.794 311.77 178.406 313.395 180.416 313.395C182.426 313.395 184.038 311.77 184.038 309.773ZM95.6416 309.773C95.6416 307.776 94.016 306.15 92.0192 306.15C90.0224 306.15 88.3969 307.776 88.3969 309.773C88.3969 311.77 90.0224 313.395 92.0192 313.395C94.016 313.395 95.6416 311.77 95.6416 309.773ZM243.085 287.91C243.085 289.894 244.698 291.533 246.72 291.533C248.704 291.533 250.33 289.907 250.33 287.91C250.33 285.901 248.704 284.275 246.72 284.275C244.698 284.288 243.085 285.901 243.085 287.91ZM117.734 309.773C117.734 307.776 116.122 306.15 114.112 306.15C112.115 306.15 110.49 307.776 110.49 309.773C110.49 311.77 112.115 313.395 114.112 313.395C116.122 313.395 117.734 311.77 117.734 309.773ZM66.3041 309.773C66.3041 311.77 67.9168 313.395 69.9264 313.395C71.936 313.395 73.5488 311.77 73.5488 309.773C73.5488 307.776 71.9232 306.15 69.9264 306.15C67.9296 306.15 66.3041 307.776 66.3041 309.773ZM294.528 309.773C294.528 307.776 292.902 306.15 290.906 306.15C288.909 306.15 287.283 307.776 287.283 309.773C287.283 311.77 288.909 313.395 290.906 313.395C292.902 313.395 294.528 311.77 294.528 309.773ZM139.827 353.51C139.827 351.501 138.214 349.888 136.218 349.888C134.541 349.888 133.133 351.04 132.736 352.589C135.053 353.216 137.37 353.83 139.725 354.368C139.789 354.099 139.827 353.805 139.827 353.51ZM176.794 200.435C176.794 202.432 178.406 204.058 180.416 204.058C182.426 204.058 184.038 202.432 184.038 200.435C184.038 198.438 182.413 196.826 180.416 196.826C178.419 196.826 176.794 198.438 176.794 200.435ZM250.33 309.773C250.33 307.776 248.704 306.15 246.72 306.15C244.698 306.15 243.085 307.776 243.085 309.773C243.085 311.77 244.698 313.395 246.72 313.395C248.704 313.395 250.33 311.77 250.33 309.773ZM228.237 309.773C228.237 307.776 226.611 306.15 224.614 306.15C222.618 306.15 220.992 307.776 220.992 309.773C220.992 311.77 222.605 313.395 224.614 313.395C226.611 313.395 228.237 311.77 228.237 309.773ZM224.614 349.888C222.618 349.888 220.992 351.501 220.992 353.51C220.992 353.805 221.03 354.099 221.107 354.368C223.462 353.83 225.792 353.229 228.109 352.589C227.686 351.04 226.291 349.888 224.614 349.888ZM176.794 353.51C176.794 355.494 178.406 357.133 180.416 357.133C182.426 357.133 184.038 355.507 184.038 353.51C184.038 351.501 182.413 349.888 180.416 349.888C178.419 349.888 176.794 351.501 176.794 353.51ZM316.621 69.2224C316.621 67.2256 315.008 65.6 313.011 65.6C311.014 65.6 309.389 67.2256 309.389 69.2224C309.389 71.2192 311.014 72.8448 313.011 72.8448C315.008 72.8448 316.621 71.2192 316.621 69.2224ZM154.688 353.51C154.688 355.494 156.314 357.133 158.31 357.133C160.307 357.133 161.933 355.507 161.933 353.51C161.933 351.501 160.307 349.888 158.31 349.888C156.314 349.888 154.688 351.501 154.688 353.51ZM206.131 353.51C206.131 351.501 204.518 349.888 202.509 349.888C200.512 349.888 198.899 351.501 198.899 353.51C198.899 355.494 200.512 357.133 202.509 357.133C204.518 357.133 206.131 355.507 206.131 353.51ZM250.33 331.635C250.33 329.638 248.704 328.013 246.72 328.013C244.698 328.013 243.085 329.626 243.085 331.635C243.085 333.632 244.698 335.258 246.72 335.258C248.704 335.258 250.33 333.645 250.33 331.635ZM25.7152 94.7072C27.712 94.7072 29.3377 93.1072 29.3377 91.0976C29.3377 89.1008 27.712 87.4752 25.7152 87.4752C25.2928 87.4752 24.9089 87.552 24.5377 87.68C23.7313 89.0624 22.9503 90.4448 22.1823 91.84C22.5279 93.4784 23.9872 94.7072 25.7152 94.7072ZM44.1984 69.2224C44.1984 71.2192 45.8112 72.8448 47.808 72.8448C49.8048 72.8448 51.4305 71.2192 51.4305 69.2224C51.4305 67.2256 49.8048 65.6 47.808 65.6C45.8112 65.6128 44.1984 67.2256 44.1984 69.2224ZM184.038 331.635C184.038 329.638 182.413 328.013 180.416 328.013C178.419 328.013 176.794 329.626 176.794 331.635C176.794 333.632 178.406 335.258 180.416 335.258C182.426 335.258 184.038 333.645 184.038 331.635ZM117.734 331.635C117.734 329.638 116.122 328.013 114.112 328.013C112.115 328.013 110.49 329.626 110.49 331.635C110.49 333.632 112.115 335.258 114.112 335.258C116.122 335.258 117.734 333.645 117.734 331.635ZM161.933 331.635C161.933 329.638 160.307 328.013 158.31 328.013C156.314 328.013 154.688 329.626 154.688 331.635C154.688 333.632 156.314 335.258 158.31 335.258C160.307 335.258 161.933 333.645 161.933 331.635ZM228.237 331.635C228.237 329.638 226.611 328.013 224.614 328.013C222.618 328.013 220.992 329.626 220.992 331.635C220.992 333.632 222.605 335.258 224.614 335.258C226.611 335.258 228.237 333.645 228.237 331.635ZM139.827 331.635C139.827 329.638 138.214 328.013 136.218 328.013C134.221 328.013 132.595 329.626 132.595 331.635C132.595 333.632 134.221 335.258 136.218 335.258C138.214 335.258 139.827 333.645 139.827 331.635ZM95.6416 331.635C95.6416 329.638 94.016 328.013 92.0192 328.013C90.0224 328.013 88.3969 329.626 88.3969 331.635C88.3969 333.632 90.0224 335.258 92.0192 335.258C94.016 335.258 95.6416 333.645 95.6416 331.635ZM272.422 309.773C272.422 307.776 270.797 306.15 268.8 306.15C266.803 306.15 265.178 307.776 265.178 309.773C265.178 311.77 266.79 313.395 268.8 313.395C270.81 313.395 272.422 311.77 272.422 309.773ZM110.49 222.298C110.49 224.294 112.115 225.92 114.112 225.92C116.109 225.92 117.734 224.307 117.734 222.298C117.734 220.301 116.122 218.662 114.112 218.662C112.115 218.675 110.49 220.301 110.49 222.298ZM132.595 222.298C132.595 224.294 134.221 225.92 136.218 225.92C138.214 225.92 139.827 224.307 139.827 222.298C139.827 220.301 138.214 218.662 136.218 218.662C134.221 218.675 132.595 220.301 132.595 222.298ZM88.3969 222.298C88.3969 224.294 90.0224 225.92 92.0192 225.92C94.016 225.92 95.6416 224.307 95.6416 222.298C95.6416 220.301 94.016 218.662 92.0192 218.662C90.0224 218.675 88.3969 220.301 88.3969 222.298ZM176.794 222.298C176.794 224.294 178.406 225.92 180.416 225.92C182.426 225.92 184.038 224.307 184.038 222.298C184.038 220.301 182.413 218.662 180.416 218.662C178.419 218.662 176.794 220.301 176.794 222.298ZM198.899 222.298C198.899 224.294 200.512 225.92 202.509 225.92C204.506 225.92 206.131 224.307 206.131 222.298C206.131 220.301 204.518 218.662 202.509 218.662C200.512 218.675 198.899 220.301 198.899 222.298ZM66.3041 222.298C66.3041 224.294 67.9168 225.92 69.9264 225.92C71.936 225.92 73.5488 224.307 73.5488 222.298C73.5488 220.301 71.9232 218.662 69.9264 218.662C67.9296 218.662 66.3041 220.301 66.3041 222.298ZM154.688 222.298C154.688 224.294 156.314 225.92 158.31 225.92C160.307 225.92 161.933 224.307 161.933 222.298C161.933 220.301 160.307 218.662 158.31 218.662C156.314 218.675 154.688 220.301 154.688 222.298ZM309.389 244.173C309.389 246.17 311.014 247.795 313.011 247.795C315.008 247.795 316.621 246.182 316.621 244.173C316.621 242.176 315.008 240.55 313.011 240.55C311.014 240.55 309.389 242.163 309.389 244.173ZM44.1984 222.298C44.1984 224.294 45.8112 225.92 47.808 225.92C49.8048 225.92 51.4305 224.307 51.4305 222.298C51.4305 220.301 49.8048 218.662 47.808 218.662C45.8112 218.675 44.1984 220.301 44.1984 222.298ZM287.296 244.173C287.296 246.17 288.922 247.795 290.918 247.795C292.915 247.795 294.541 246.182 294.541 244.173C294.541 242.176 292.915 240.55 290.918 240.55C288.909 240.55 287.296 242.163 287.296 244.173ZM331.482 244.173C331.482 246.17 333.107 247.795 335.104 247.795C337.101 247.795 338.714 246.182 338.714 244.173C338.714 242.176 337.088 240.55 335.104 240.55C333.107 240.55 331.482 242.163 331.482 244.173ZM22.0928 222.298C22.0928 224.294 23.7184 225.92 25.7152 225.92C27.712 225.92 29.3377 224.307 29.3377 222.298C29.3377 220.301 27.712 218.662 25.7152 218.662C23.7184 218.675 22.0928 220.301 22.0928 222.298ZM7.24484 222.298C7.24484 220.608 6.08004 219.2 4.51844 218.803C4.99204 220.877 5.50396 222.925 6.04156 224.973C6.77116 224.32 7.24484 223.36 7.24484 222.298ZM44.1984 200.435C44.1984 202.432 45.8112 204.058 47.808 204.058C49.8048 204.058 51.4305 202.432 51.4305 200.435C51.4305 198.438 49.8048 196.826 47.808 196.826C45.8112 196.813 44.1984 198.438 44.1984 200.435ZM110.49 200.435C110.49 202.432 112.115 204.058 114.112 204.058C116.109 204.058 117.734 202.432 117.734 200.435C117.734 198.438 116.122 196.826 114.112 196.826C112.115 196.813 110.49 198.438 110.49 200.435ZM265.19 244.173C265.19 246.17 266.803 247.795 268.813 247.795C270.81 247.795 272.435 246.182 272.435 244.173C272.435 242.176 270.81 240.55 268.813 240.55C266.803 240.55 265.19 242.163 265.19 244.173ZM66.3041 200.435C66.3041 202.432 67.9168 204.058 69.9264 204.058C71.936 204.058 73.5488 202.432 73.5488 200.435C73.5488 198.438 71.9232 196.826 69.9264 196.826C67.9296 196.826 66.3041 198.438 66.3041 200.435ZM220.992 222.298C220.992 224.294 222.605 225.92 224.614 225.92C226.611 225.92 228.237 224.307 228.237 222.298C228.237 220.301 226.611 218.662 224.614 218.662C222.618 218.675 220.992 220.301 220.992 222.298ZM132.595 200.435C132.595 202.432 134.221 204.058 136.218 204.058C138.214 204.058 139.827 202.432 139.827 200.435C139.827 198.438 138.214 196.826 136.218 196.826C134.221 196.813 132.595 198.438 132.595 200.435ZM154.688 200.435C154.688 202.432 156.314 204.058 158.31 204.058C160.307 204.058 161.933 202.432 161.933 200.435C161.933 198.438 160.307 196.826 158.31 196.826C156.314 196.813 154.688 198.438 154.688 200.435ZM88.3969 200.435C88.3969 202.432 90.0224 204.058 92.0192 204.058C94.016 204.058 95.6416 202.432 95.6416 200.435C95.6416 198.438 94.016 196.826 92.0192 196.826C90.0224 196.813 88.3969 198.438 88.3969 200.435ZM265.19 222.298C265.19 224.294 266.803 225.92 268.813 225.92C270.81 225.92 272.435 224.307 272.435 222.298C272.435 220.301 270.81 218.662 268.813 218.662C266.803 218.675 265.19 220.301 265.19 222.298ZM287.296 222.298C287.296 224.294 288.922 225.92 290.918 225.92C292.915 225.92 294.541 224.307 294.541 222.298C294.541 220.301 292.915 218.662 290.918 218.662C288.909 218.675 287.296 220.301 287.296 222.298ZM243.085 222.298C243.085 224.294 244.698 225.92 246.72 225.92C248.704 225.92 250.33 224.307 250.33 222.298C250.33 220.301 248.704 218.662 246.72 218.662C244.698 218.675 243.085 220.301 243.085 222.298ZM22.0928 200.435C22.0928 202.432 23.7184 204.058 25.7152 204.058C27.712 204.058 29.3377 202.432 29.3377 200.435C29.3377 198.438 27.712 196.826 25.7152 196.826C23.7184 196.813 22.0928 198.438 22.0928 200.435ZM331.482 222.298C331.482 224.294 333.107 225.92 335.104 225.92C337.101 225.92 338.714 224.307 338.714 222.298C338.714 220.301 337.088 218.662 335.104 218.662C333.107 218.675 331.482 220.301 331.482 222.298ZM309.389 222.298C309.389 224.294 311.014 225.92 313.011 225.92C315.008 225.92 316.621 224.307 316.621 222.298C316.621 220.301 315.008 218.662 313.011 218.662C311.014 218.675 309.389 220.301 309.389 222.298ZM287.296 266.035C287.296 268.032 288.922 269.658 290.918 269.658C292.915 269.658 294.541 268.032 294.541 266.035C294.541 264.026 292.915 262.413 290.918 262.413C288.909 262.413 287.296 264.026 287.296 266.035ZM198.899 266.035C198.899 268.032 200.512 269.658 202.509 269.658C204.506 269.658 206.131 268.032 206.131 266.035C206.131 264.026 204.518 262.413 202.509 262.413C200.512 262.413 198.899 264.026 198.899 266.035ZM176.794 266.035C176.794 268.032 178.406 269.658 180.416 269.658C182.426 269.658 184.038 268.032 184.038 266.035C184.038 264.026 182.413 262.413 180.416 262.413C178.419 262.413 176.794 264.026 176.794 266.035ZM220.992 266.035C220.992 268.032 222.605 269.658 224.614 269.658C226.611 269.658 228.237 268.032 228.237 266.035C228.237 264.026 226.611 262.413 224.614 262.413C222.618 262.413 220.992 264.026 220.992 266.035ZM154.688 266.035C154.688 268.032 156.314 269.658 158.31 269.658C160.307 269.658 161.933 268.032 161.933 266.035C161.933 264.026 160.307 262.413 158.31 262.413C156.314 262.413 154.688 264.026 154.688 266.035ZM243.085 266.035C243.085 268.032 244.698 269.658 246.72 269.658C248.704 269.658 250.33 268.032 250.33 266.035C250.33 264.026 248.704 262.413 246.72 262.413C244.698 262.413 243.085 264.026 243.085 266.035ZM265.19 266.035C265.19 268.032 266.803 269.658 268.813 269.658C270.81 269.658 272.435 268.032 272.435 266.035C272.435 264.026 270.81 262.413 268.813 262.413C266.803 262.413 265.19 264.026 265.19 266.035ZM44.1984 266.035C44.1984 268.032 45.8112 269.658 47.808 269.658C49.8048 269.658 51.4305 268.032 51.4305 266.035C51.4305 264.026 49.8048 262.413 47.808 262.413C45.8112 262.413 44.1984 264.026 44.1984 266.035ZM66.3041 266.035C66.3041 268.032 67.9168 269.658 69.9264 269.658C71.936 269.658 73.5488 268.032 73.5488 266.035C73.5488 264.026 71.9232 262.413 69.9264 262.413C67.9296 262.413 66.3041 264.026 66.3041 266.035ZM132.595 266.035C132.595 268.032 134.221 269.658 136.218 269.658C138.214 269.658 139.827 268.032 139.827 266.035C139.827 264.026 138.214 262.413 136.218 262.413C134.221 262.413 132.595 264.026 132.595 266.035ZM265.19 287.91C265.19 289.894 266.803 291.533 268.813 291.533C270.81 291.533 272.435 289.907 272.435 287.91C272.435 285.901 270.81 284.275 268.813 284.275C266.803 284.288 265.19 285.901 265.19 287.91ZM309.389 266.035C309.389 268.032 311.014 269.658 313.011 269.658C315.008 269.658 316.621 268.032 316.621 266.035C316.621 264.026 315.008 262.413 313.011 262.413C311.014 262.413 309.389 264.026 309.389 266.035ZM110.49 266.035C110.49 268.032 112.115 269.658 114.112 269.658C116.109 269.658 117.734 268.032 117.734 266.035C117.734 264.026 116.122 262.413 114.112 262.413C112.115 262.413 110.49 264.026 110.49 266.035ZM88.3969 266.035C88.3969 268.032 90.0224 269.658 92.0192 269.658C94.016 269.658 95.6416 268.032 95.6416 266.035C95.6416 264.026 94.016 262.413 92.0192 262.413C90.0224 262.413 88.3969 264.026 88.3969 266.035ZM44.1984 244.173C44.1984 246.17 45.8112 247.795 47.808 247.795C49.8048 247.795 51.4305 246.182 51.4305 244.173C51.4305 242.176 49.8048 240.55 47.808 240.55C45.8112 240.55 44.1984 242.163 44.1984 244.173ZM176.794 244.173C176.794 246.17 178.406 247.795 180.416 247.795C182.426 247.795 184.038 246.182 184.038 244.173C184.038 242.176 182.413 240.55 180.416 240.55C178.419 240.55 176.794 242.163 176.794 244.173ZM154.688 244.173C154.688 246.17 156.314 247.795 158.31 247.795C160.307 247.795 161.933 246.182 161.933 244.173C161.933 242.176 160.307 240.55 158.31 240.55C156.314 240.55 154.688 242.163 154.688 244.173ZM132.595 244.173C132.595 246.17 134.221 247.795 136.218 247.795C138.214 247.795 139.827 246.182 139.827 244.173C139.827 242.176 138.214 240.55 136.218 240.55C134.221 240.55 132.595 242.163 132.595 244.173ZM220.992 244.173C220.992 246.17 222.605 247.795 224.614 247.795C226.611 247.795 228.237 246.182 228.237 244.173C228.237 242.176 226.611 240.55 224.614 240.55C222.618 240.55 220.992 242.163 220.992 244.173ZM198.899 244.173C198.899 246.17 200.512 247.795 202.509 247.795C204.506 247.795 206.131 246.182 206.131 244.173C206.131 242.176 204.518 240.55 202.509 240.55C200.512 240.55 198.899 242.163 198.899 244.173ZM110.49 244.173C110.49 246.17 112.115 247.795 114.112 247.795C116.109 247.795 117.734 246.182 117.734 244.173C117.734 242.176 116.122 240.55 114.112 240.55C112.115 240.55 110.49 242.163 110.49 244.173ZM287.296 287.91C287.296 289.894 288.922 291.533 290.918 291.533C292.915 291.533 294.541 289.907 294.541 287.91C294.541 285.901 292.915 284.275 290.918 284.275C288.909 284.288 287.296 285.901 287.296 287.91ZM29.3377 266.035C29.3377 264.026 27.712 262.413 25.7152 262.413C23.9744 262.413 22.5279 263.642 22.1823 265.28C22.9503 266.675 23.7313 268.058 24.5377 269.44C24.9089 269.581 25.3056 269.658 25.7152 269.658C27.712 269.658 29.3377 268.032 29.3377 266.035ZM22.0928 244.173C22.0928 246.17 23.7184 247.795 25.7152 247.795C27.712 247.795 29.3377 246.182 29.3377 244.173C29.3377 242.176 27.712 240.55 25.7152 240.55C23.7184 240.55 22.0928 242.163 22.0928 244.173ZM243.085 244.173C243.085 246.17 244.698 247.795 246.72 247.795C248.704 247.795 250.33 246.182 250.33 244.173C250.33 242.176 248.704 240.55 246.72 240.55C244.698 240.55 243.085 242.163 243.085 244.173ZM66.3041 244.173C66.3041 246.17 67.9168 247.795 69.9264 247.795C71.936 247.795 73.5488 246.182 73.5488 244.173C73.5488 242.176 71.9232 240.55 69.9264 240.55C67.9296 240.55 66.3041 242.163 66.3041 244.173ZM88.3969 244.173C88.3969 246.17 90.0224 247.795 92.0192 247.795C94.016 247.795 95.6416 246.182 95.6416 244.173C95.6416 242.176 94.016 240.55 92.0192 240.55C90.0224 240.55 88.3969 242.163 88.3969 244.173Z" fill="white"/>
</svg>
