<svg width="257" height="368" viewBox="0 0 257 368" fill="none" xmlns="http://www.w3.org/2000/svg">
<path d="M196.689 302.701V316.672H192.738V305.755H190.143V302.701H196.689ZM209.588 313.539V316.672H198.711V314.197L203.939 309.307C204.445 308.828 204.784 308.423 204.957 308.09C205.13 307.744 205.217 307.398 205.217 307.052C205.217 306.6 205.064 306.247 204.758 305.994C204.452 305.742 204.006 305.615 203.421 305.615C202.902 305.615 202.423 305.735 201.984 305.974C201.558 306.201 201.205 306.533 200.926 306.972L197.992 305.336C198.538 304.431 199.303 303.719 200.287 303.2C201.272 302.681 202.436 302.422 203.78 302.422C204.844 302.422 205.782 302.595 206.594 302.941C207.419 303.287 208.057 303.786 208.51 304.438C208.976 305.076 209.208 305.821 209.208 306.673C209.208 307.431 209.042 308.15 208.709 308.828C208.39 309.494 207.765 310.252 206.833 311.104L204.199 313.539H209.588ZM210.978 309.527H216.806V312.441H210.978V309.527ZM225.211 308.29C226.369 308.529 227.254 309.008 227.866 309.727C228.491 310.432 228.804 311.29 228.804 312.301C228.804 313.126 228.578 313.891 228.125 314.596C227.686 315.301 227.008 315.874 226.09 316.313C225.185 316.738 224.06 316.951 222.717 316.951C221.732 316.951 220.754 316.832 219.783 316.592C218.825 316.353 217.993 316.013 217.288 315.574L218.725 312.6C219.271 312.973 219.883 313.259 220.561 313.459C221.253 313.658 221.932 313.758 222.597 313.758C223.275 313.758 223.814 313.632 224.213 313.379C224.613 313.126 224.812 312.767 224.812 312.301C224.812 311.396 224.1 310.944 222.677 310.944H221.02V308.449L223.515 305.755H218.007V302.701H228.105V305.176L225.211 308.29ZM236.059 302.701V316.672H232.108V305.755H229.513V302.701H236.059ZM238.44 309.527H244.267V312.441H238.44V309.527ZM256.344 313.539V316.672H245.467V314.197L250.696 309.307C251.202 308.828 251.541 308.423 251.714 308.09C251.887 307.744 251.973 307.398 251.973 307.052C251.973 306.6 251.82 306.247 251.514 305.994C251.208 305.742 250.763 305.615 250.177 305.615C249.658 305.615 249.179 305.735 248.74 305.974C248.314 306.201 247.962 306.533 247.682 306.972L244.749 305.336C245.294 304.431 246.059 303.719 247.044 303.2C248.028 302.681 249.193 302.422 250.536 302.422C251.601 302.422 252.539 302.595 253.35 302.941C254.175 303.287 254.814 303.786 255.266 304.438C255.732 305.076 255.965 305.821 255.965 306.673C255.965 307.431 255.799 308.15 255.466 308.828C255.147 309.494 254.521 310.252 253.59 311.104L250.956 313.539H256.344ZM263.642 316.951C262.444 316.951 261.38 316.665 260.449 316.093C259.517 315.521 258.785 314.689 258.253 313.598C257.734 312.494 257.475 311.19 257.475 309.687C257.475 308.183 257.734 306.886 258.253 305.795C258.785 304.691 259.517 303.852 260.449 303.28C261.38 302.708 262.444 302.422 263.642 302.422C264.826 302.422 265.884 302.708 266.815 303.28C267.746 303.852 268.472 304.691 268.991 305.795C269.523 306.886 269.789 308.183 269.789 309.687C269.789 311.19 269.523 312.494 268.991 313.598C268.472 314.689 267.746 315.521 266.815 316.093C265.884 316.665 264.826 316.951 263.642 316.951ZM263.642 313.718C264.307 313.718 264.833 313.399 265.219 312.76C265.618 312.108 265.817 311.084 265.817 309.687C265.817 308.29 265.618 307.272 265.219 306.633C264.833 305.981 264.307 305.655 263.642 305.655C262.963 305.655 262.424 305.981 262.025 306.633C261.639 307.272 261.446 308.29 261.446 309.687C261.446 311.084 261.639 312.108 262.025 312.76C262.424 313.399 262.963 313.718 263.642 313.718ZM281.779 313.539V316.672H270.902V314.197L276.131 309.307C276.636 308.828 276.975 308.423 277.148 308.09C277.321 307.744 277.408 307.398 277.408 307.052C277.408 306.6 277.255 306.247 276.949 305.994C276.643 305.742 276.197 305.615 275.612 305.615C275.093 305.615 274.614 305.735 274.175 305.974C273.749 306.201 273.396 306.533 273.117 306.972L270.183 305.336C270.729 304.431 271.494 303.719 272.478 303.2C273.463 302.681 274.627 302.422 275.971 302.422C277.035 302.422 277.973 302.595 278.785 302.941C279.61 303.287 280.249 303.786 280.701 304.438C281.167 305.076 281.399 305.821 281.399 306.673C281.399 307.431 281.233 308.15 280.901 308.828C280.581 309.494 279.956 310.252 279.024 311.104L276.39 313.539H281.779ZM293.726 313.539V316.672H282.849V314.197L288.078 309.307C288.584 308.828 288.923 308.423 289.096 308.09C289.269 307.744 289.355 307.398 289.355 307.052C289.355 306.6 289.202 306.247 288.896 305.994C288.59 305.742 288.145 305.615 287.559 305.615C287.04 305.615 286.561 305.735 286.122 305.974C285.696 306.201 285.344 306.533 285.064 306.972L282.131 305.336C282.676 304.431 283.441 303.719 284.426 303.2C285.41 302.681 286.574 302.422 287.918 302.422C288.983 302.422 289.921 302.595 290.732 302.941C291.557 303.287 292.196 303.786 292.648 304.438C293.114 305.076 293.347 305.821 293.347 306.673C293.347 307.431 293.181 308.15 292.848 308.828C292.529 309.494 291.903 310.252 290.972 311.104L288.337 313.539H293.726Z" fill="white"/>
<path d="M62.7402 27.7383L267.11 367.758L471.48 27.7383H62.7402ZM169.59 86.0283H364.64L267.12 248.288L169.59 86.0283Z" fill="url(#paint0_radial_6363_542)"/>
<path opacity="0.4" d="M71.1309 160.262H293.581L182.351 345.312L71.1309 160.262Z" fill="white"/>
<path d="M339.5 141H58.5954L0 215L58.5954 289H339.5V141Z" fill="#9848FF"/>
<path opacity="0.6" d="M468.47 245.17H173.75L321.11 0L468.47 245.17Z" fill="url(#paint1_radial_6363_542)"/>
<defs>
<radialGradient id="paint0_radial_6363_542" cx="0" cy="0" r="1" gradientUnits="userSpaceOnUse" gradientTransform="translate(267.115 197.747) scale(299.311 299.311)">
<stop stop-color="#0ED1F9"/>
<stop offset="0.0451" stop-color="#0CC6F4"/>
<stop offset="0.2826" stop-color="#058FDA"/>
<stop offset="0.3976" stop-color="#0279D0"/>
<stop offset="0.4717" stop-color="#0963BC"/>
<stop offset="0.6366" stop-color="#163995"/>
<stop offset="0.7853" stop-color="#1F1A79"/>
<stop offset="0.9111" stop-color="#250767"/>
<stop offset="0.9991" stop-color="#270061"/>
</radialGradient>
<radialGradient id="paint1_radial_6363_542" cx="0" cy="0" r="1" gradientUnits="userSpaceOnUse" gradientTransform="translate(321.114 122.58) rotate(180) scale(135.54 135.54)">
<stop stop-color="#0380B6"/>
<stop offset="1" stop-color="#02C7AB"/>
</radialGradient>
</defs>
</svg>
