<svg width="601" height="555" viewBox="0 0 601 555" fill="none" xmlns="http://www.w3.org/2000/svg">
<path d="M0 146L176.461 439.594L352.922 146H0ZM116.07 207.184H236.851L176.461 307.664L116.07 207.184Z" fill="url(#paint0_radial_8027_222)"/>
<path d="M491.603 440L446.598 485.005H420L465.005 440H491.603ZM516.525 440L471.52 485.005H498.118L543.123 440H516.525ZM568.045 440L523.04 485.005H549.638L594.643 440H568.045Z" fill="#F10E4C"/>
<path d="M179.603 47L134.598 92.0048H108L153.005 47H179.603ZM204.525 47L159.52 92.0048H186.118L231.123 47H204.525ZM256.045 47L211.04 92.0048H237.638L282.643 47H256.045Z" fill="#7C019F"/>
<rect x="524.621" width="101" height="646.562" rx="50.5" transform="rotate(41.018 524.621 0)" fill="url(#paint1_linear_8027_222)"/>
<defs>
<radialGradient id="paint0_radial_8027_222" cx="0" cy="0" r="1" gradientUnits="userSpaceOnUse" gradientTransform="translate(176.466 292.802) scale(258.444 258.444)">
<stop stop-color="#0ED1F9"/>
<stop offset="0.0451" stop-color="#0CC6F4"/>
<stop offset="0.2826" stop-color="#058FDA"/>
<stop offset="0.3976" stop-color="#0279D0"/>
<stop offset="0.4717" stop-color="#0963BC"/>
<stop offset="0.6366" stop-color="#163995"/>
<stop offset="0.7853" stop-color="#1F1A79"/>
<stop offset="0.9111" stop-color="#250767"/>
<stop offset="0.9991" stop-color="#270061"/>
</radialGradient>
<linearGradient id="paint1_linear_8027_222" x1="575.121" y1="0" x2="575.914" y2="667.11" gradientUnits="userSpaceOnUse">
<stop stop-color="#FF9B04"/>
<stop offset="1" stop-color="#1260FE"/>
</linearGradient>
</defs>
</svg>
